<?xml version="1.0" encoding="iso-8859-1"?>
<!-- Generator: Adobe Illustrator 19.0.0, SVG Export Plug-In . SVG Version: 6.00 Build 0)  -->
<svg version="1.1" id="Layer_1" xmlns="http://www.w3.org/2000/svg" xmlns:xlink="http://www.w3.org/1999/xlink" x="0px" y="0px"
	 viewBox="0 0 512 512" style="enable-background:new 0 0 512 512;" xml:space="preserve">
<g>
	<g>
		<g>
			<path d="M375.467,341.333h-25.6c-1.195,0-29.355,0.222-48.7,19.567c-19.345,19.345-19.567,47.505-19.567,48.7v25.6
				c0,4.71,3.814,8.533,8.533,8.533h25.6c1.195,0,29.355-0.222,48.7-19.567c19.345-19.345,19.567-47.505,19.567-48.7v-25.6
				C384,345.156,380.186,341.333,375.467,341.333z M366.933,375.467c0,0.222-0.171,22.229-14.566,36.634
				c-14.157,14.157-36.113,14.558-36.651,14.566h-17.05V409.6c0-0.222,0.171-22.229,14.566-36.634
				c14.259-14.259,36.446-14.566,36.634-14.566h17.067V375.467z"/>
			<path d="M162.133,392.533h-25.6c-4.719,0-8.533,3.823-8.533,8.533v25.6c0,1.195,0.222,29.355,19.567,48.7
				c19.345,19.345,47.505,19.567,48.7,19.567h25.6c4.719,0,8.533-3.823,8.533-8.533v-25.6c0-1.195-0.222-29.355-19.567-48.7
				C191.488,392.755,163.328,392.533,162.133,392.533z M213.333,477.867h-17.067c-0.213,0-22.229-0.171-36.634-14.566
				c-14.259-14.259-14.566-36.437-14.566-36.634V409.6h17.067c0.213,0,22.229,0.171,36.634,14.566
				c14.259,14.259,14.566,36.437,14.566,36.634V477.867z"/>
			<path d="M292.028,320.247c74.249-16.845,126.106-81.86,126.106-158.114C418.133,72.73,345.404,0,256,0
				S93.867,72.73,93.867,162.133c0,86.536,68.147,157.457,153.6,161.911v179.422c0,4.71,3.814,8.533,8.533,8.533
				c4.719,0,8.533-3.823,8.533-8.533V315.733c0-4.71-3.814-8.533-8.533-8.533c-79.991,0-145.067-65.075-145.067-145.067
				S176.009,17.067,256,17.067s145.067,65.075,145.067,145.067c0,68.224-46.396,126.396-112.828,141.474
				c-4.591,1.041-7.475,5.606-6.434,10.206C282.846,318.404,287.386,321.306,292.028,320.247z"/>
			<path d="M384,162.133c0-70.579-57.421-128-128-128s-128,57.421-128,128s57.421,128,128,128S384,232.713,384,162.133z
				 M256,273.067c-61.167,0-110.933-49.766-110.933-110.933S194.833,51.2,256,51.2s110.933,49.766,110.933,110.933
				S317.167,273.067,256,273.067z"/>
			<path d="M256,119.467c9.412,0,17.067,7.654,17.067,17.067c0,4.71,3.814,8.533,8.533,8.533c4.719,0,8.533-3.823,8.533-8.533
				c0-15.855-10.914-29.107-25.6-32.922V102.4c0-4.71-3.814-8.533-8.533-8.533c-4.719,0-8.533,3.823-8.533,8.533v1.212
				c-14.686,3.814-25.6,17.067-25.6,32.922c0,18.825,15.309,34.133,34.133,34.133c9.412,0,17.067,7.654,17.067,17.067
				S265.412,204.8,256,204.8c-9.412,0-17.067-7.654-17.067-17.067c0-4.71-3.814-8.533-8.533-8.533c-4.719,0-8.533,3.823-8.533,8.533
				c0,15.855,10.914,29.107,25.6,32.922v1.212c0,4.71,3.814,8.533,8.533,8.533c4.719,0,8.533-3.823,8.533-8.533v-1.212
				c14.686-3.814,25.6-17.067,25.6-32.922c0-18.825-15.309-34.133-34.133-34.133c-9.412,0-17.067-7.654-17.067-17.067
				C238.933,127.121,246.588,119.467,256,119.467z"/>
		</g>
	</g>
</g>
<g>
</g>
<g>
</g>
<g>
</g>
<g>
</g>
<g>
</g>
<g>
</g>
<g>
</g>
<g>
</g>
<g>
</g>
<g>
</g>
<g>
</g>
<g>
</g>
<g>
</g>
<g>
</g>
<g>
</g>
</svg>
