<?xml version="1.0" encoding="iso-8859-1"?>
<!-- Generator: Adobe Illustrator 19.0.0, SVG Export Plug-In . SVG Version: 6.00 Build 0)  -->
<svg version="1.1" id="Layer_1" xmlns="http://www.w3.org/2000/svg" xmlns:xlink="http://www.w3.org/1999/xlink" x="0px" y="0px"
	 viewBox="0 0 512.015 512.015" style="enable-background:new 0 0 512.015 512.015;" xml:space="preserve">
<g>
	<g>
		<g>
			<path d="M370.142,237.413c1.544,1.178,3.362,1.741,5.154,1.741c2.577,0,5.12-1.152,6.801-3.362
				c6.827-8.969,10.436-19.678,10.436-30.985c0-4.71-3.814-8.533-8.533-8.533c-4.719,0-8.533,3.823-8.533,8.533
				c0,7.535-2.398,14.677-6.946,20.651C365.67,229.204,366.387,234.563,370.142,237.413z"/>
			<path d="M341.333,290.141c47.053,0,85.333-38.281,85.333-85.333c0-62.839-76.407-131.49-79.667-134.383
				c-3.234-2.867-8.098-2.867-11.332,0C332.407,73.317,256,141.968,256,204.808C256,251.86,294.281,290.141,341.333,290.141z
				 M341.333,88.524c17.314,16.802,68.267,70.178,68.267,116.284c0,37.641-30.626,68.267-68.267,68.267
				c-37.641,0-68.267-30.626-68.267-68.267C273.067,158.77,324.028,105.343,341.333,88.524z"/>
			<path d="M460.792,102.408c0.657,0,1.323-0.077,1.98-0.23c5.905-1.408,13.286-7.765,14.899-14.985
				c1.016-4.599-1.843-9.293-6.443-10.317c-4.582-0.99-9.131,1.741-10.146,6.34c-0.307,0.708-1.672,2.039-2.458,2.406
				c-4.463,1.169-7.202,5.709-6.127,10.232C453.436,99.771,456.934,102.408,460.792,102.408z"/>
			<path d="M460.8,136.541c28.237,0,51.2-22.963,51.2-51.2c0-46.234-43.998-81.963-45.867-83.465c-3.115-2.492-7.552-2.492-10.667,0
				C453.598,3.378,409.6,39.107,409.6,85.341C409.6,113.578,432.563,136.541,460.8,136.541z M460.8,19.993
				c10.786,10.3,34.133,36.002,34.133,65.348c0,18.825-15.309,34.133-34.133,34.133c-18.825,0-34.133-15.309-34.133-34.133
				C426.667,55.995,450.014,30.292,460.8,19.993z"/>
			<path d="M221.858,102.408c0.657,0,1.323-0.077,1.98-0.23c5.905-1.408,13.286-7.765,14.899-14.985
				c1.016-4.599-1.843-9.293-6.443-10.317c-4.565-0.99-9.131,1.741-10.146,6.34c-0.307,0.708-1.673,2.039-2.458,2.406
				c-4.463,1.169-7.202,5.709-6.127,10.232C214.502,99.771,218.001,102.408,221.858,102.408z"/>
			<path d="M221.867,136.541c28.237,0,51.2-22.963,51.2-51.2c0-46.234-43.998-81.963-45.867-83.465
				c-3.115-2.492-7.552-2.492-10.667,0c-1.869,1.502-45.867,37.231-45.867,83.465C170.667,113.578,193.63,136.541,221.867,136.541z
				 M221.867,19.993C232.653,30.292,256,55.995,256,85.341c0,18.825-15.309,34.133-34.133,34.133s-34.133-15.309-34.133-34.133
				C187.733,55.995,211.081,30.292,221.867,19.993z"/>
			<path d="M507.426,358.408c-9.412-16.316-30.353-21.888-46.097-12.774l-98.21,47.804c-15.266,7.637-30.677,7.637-64.452,7.637
				c-33.015,0-83.422-8.337-83.934-8.414c-4.651-0.768-9.045,2.364-9.813,7.006c-0.777,4.651,2.364,9.054,7.014,9.822
				c2.116,0.358,52.292,8.653,86.733,8.653c35.43,0,53.214,0,71.996-9.395l98.671-48.051c3.942-2.278,8.542-2.884,12.954-1.707
				c4.395,1.186,8.081,4.011,10.351,7.953c2.287,3.951,2.893,8.55,1.715,12.954s-4.002,8.081-8.192,10.505l-115.379,71.808
				c-0.239,0.162-24.858,15.667-80.648,15.667c-48.375,0-123.11-41.182-124.186-41.771c-0.777-0.375-19.285-9.429-55.014-9.429
				c-4.719,0-8.533,3.823-8.533,8.533s3.814,8.533,8.533,8.533c31.036,0,47.027,7.467,47.061,7.467v-0.009
				c3.226,1.792,79.334,43.742,132.139,43.742c61.611,0,88.934-17.749,89.839-18.355l114.961-71.552
				c7.893-4.557,13.542-11.921,15.898-20.719C513.203,375.5,511.983,366.301,507.426,358.408z"/>
			<path d="M42.667,456.541c0-7.057-5.743-12.8-12.8-12.8c-7.057,0-12.8,5.743-12.8,12.8c0,7.057,5.743,12.8,12.8,12.8
				C36.924,469.341,42.667,463.598,42.667,456.541z"/>
			<path d="M59.733,273.074h-51.2c-4.719,0-8.533,3.823-8.533,8.533s3.814,8.533,8.533,8.533h51.2c4.71,0,8.533,3.831,8.533,8.533
				v187.733c0,4.702-3.823,8.533-8.533,8.533h-51.2c-4.719,0-8.533,3.823-8.533,8.533s3.814,8.533,8.533,8.533h51.2
				c14.114,0,25.6-11.486,25.6-25.6V298.674C85.333,284.56,73.847,273.074,59.733,273.074z"/>
			<path d="M110.933,324.274H179.2c9.958,0,26.88,12.698,41.813,23.893c18.722,14.046,36.412,27.307,52.053,27.307h51.2
				c12.962,0,19.396,5.879,19.567,6.033c1.664,1.664,3.849,2.5,6.033,2.5c2.185,0,4.369-0.836,6.033-2.5
				c3.336-3.337,3.336-8.73,0-12.066c-1.126-1.126-11.605-11.034-31.633-11.034h-51.2c-9.958,0-26.88-12.698-41.813-23.893
				c-18.722-14.046-36.412-27.307-52.053-27.307h-68.267c-4.719,0-8.533,3.823-8.533,8.533S106.214,324.274,110.933,324.274z"/>
		</g>
	</g>
</g>
<g>
</g>
<g>
</g>
<g>
</g>
<g>
</g>
<g>
</g>
<g>
</g>
<g>
</g>
<g>
</g>
<g>
</g>
<g>
</g>
<g>
</g>
<g>
</g>
<g>
</g>
<g>
</g>
<g>
</g>
</svg>
