<?xml version="1.0" encoding="iso-8859-1"?>
<!-- Generator: Adobe Illustrator 19.0.0, SVG Export Plug-In . SVG Version: 6.00 Build 0)  -->
<svg version="1.1" id="Layer_1" xmlns="http://www.w3.org/2000/svg" xmlns:xlink="http://www.w3.org/1999/xlink" x="0px" y="0px"
	 viewBox="0 0 512.003 512.003" style="enable-background:new 0 0 512.003 512.003;" xml:space="preserve">
<g>
	<g>
		<g>
			<path d="M307.457,187.733h-0.085c-4.71,0-8.491,3.823-8.491,8.533s3.866,8.533,8.576,8.533c4.719,0,8.533-3.823,8.533-8.533
				S312.176,187.733,307.457,187.733z"/>
			<path d="M205.057,187.733h-0.085c-4.71,0-8.491,3.823-8.491,8.533s3.866,8.533,8.576,8.533c4.719,0,8.533-3.823,8.533-8.533
				S209.776,187.733,205.057,187.733z"/>
			<path d="M104.287,227.678c3.413,6.938,7.876,16.017,17.314,18.884c4.787,13.67,18.91,52.122,33.434,73.907
				c10.974,16.452,36.668,54.997,100.966,54.997s89.993-38.545,100.966-54.997c14.515-21.777,28.629-60.203,33.434-73.89
				c10.103-3.012,14.711-13.056,18.304-20.898c0.375-0.768,9.429-19.183,9.429-46.481c0-11.085-7.996-22.263-25.6-24.977v-43.29
				C392.535,109.824,390.973,0,256.001,0S119.468,126.72,119.468,128c0,4.71,3.823,8.533,8.533,8.533
				c4.71,0,8.533-3.823,8.533-8.533c0-4.531,1.357-110.933,119.467-110.933c117.589,0,119.45,90.061,119.467,93.867v51.2
				c0,4.71,3.823,8.533,8.533,8.533c7.876,0,17.067,2.236,17.067,8.533c0,23.049-7.569,38.724-7.987,39.612
				c-3.985,8.695-5.862,11.588-9.079,11.588c-3.678,0-6.938,2.347-8.098,5.837c-0.162,0.503-16.887,50.398-33.135,74.761
				c-10.257,15.386-31.599,47.403-86.767,47.403c-55.168,0-76.51-32.017-86.767-47.403c-16.23-24.337-32.973-74.257-33.135-74.761
				c-1.161-3.49-4.429-5.837-8.098-5.837c-2.765,0-4.25-1.818-8.397-10.257l-1.033-2.091c-0.085-0.154-7.637-15.539-7.637-38.852
				c0-7.057,9.276-8.533,17.067-8.533c4.71,0,8.533-3.823,8.533-8.533c0-4.71-3.823-8.533-8.533-8.533
				c-25.165,0-34.133,13.227-34.133,25.6c0,27.298,9.054,45.713,9.429,46.481L104.287,227.678z"/>
			<path d="M374.034,165.931c-2.628-3.925-7.919-4.983-11.836-2.364l-17.946,11.964c-7.313-13.013-21.086-21.931-37.052-21.931
				c-20.608,0-37.837,14.686-41.805,34.133h-18.79c-3.968-19.447-21.197-34.133-41.805-34.133c-15.966,0-29.739,8.917-37.052,21.931
				l-17.946-11.964c-3.934-2.62-9.225-1.562-11.836,2.364c-2.611,3.925-1.553,9.225,2.364,11.836l22.178,14.78
				c-0.111,1.246-0.375,2.449-0.375,3.721c0,23.526,19.14,42.667,42.667,42.667c20.608,0,37.837-14.686,41.805-34.133h18.79
				c3.968,19.448,21.197,34.133,41.805,34.133c23.526,0,42.667-19.14,42.667-42.667c0-1.271-0.265-2.475-0.375-3.721l22.178-14.78
				C375.587,175.155,376.646,169.856,374.034,165.931z M204.801,221.867c-14.114,0-25.6-11.486-25.6-25.6s11.486-25.6,25.6-25.6
				s25.6,11.486,25.6,25.6S218.915,221.867,204.801,221.867z M307.201,221.867c-14.114,0-25.6-11.486-25.6-25.6
				s11.486-25.6,25.6-25.6s25.6,11.486,25.6,25.6S321.315,221.867,307.201,221.867z"/>
			<path d="M268.332,453.7c-27.716,18.475-37.103,45.909-37.495,47.07c-1.485,4.463,0.922,9.267,5.376,10.769
				c0.905,0.299,1.818,0.452,2.722,0.452c3.558,0,6.878-2.253,8.09-5.803c0.077-0.23,8.098-23.168,30.78-38.289
				c3.917-2.611,4.975-7.91,2.364-11.836C277.548,452.139,272.249,451.072,268.332,453.7z"/>
			<path d="M511.745,501.393l-8.713-34.756c-9.455-28.348-56.303-57.037-127.565-57.037c-2.697,0-5.299-3.934-9.267-10.411
				c-6.127-10.018-14.524-23.723-33.399-23.723c-27.401,0-106.743,42.334-160.7,123.264c-2.611,3.925-1.553,9.225,2.364,11.836
				c3.925,2.62,9.216,1.553,11.836-2.364c50.876-76.314,125.747-115.669,146.5-115.669c8.866,0,12.937,5.914,18.842,15.565
				c2.253,3.669,4.787,7.697,7.945,11.085c-16.316,12.655-45.431,38.34-52.13,65.143c-1.143,4.574,1.638,9.207,6.204,10.351
				c0.7,0.179,1.391,0.256,2.082,0.256c3.823,0,7.296-2.586,8.269-6.46c6.699-26.795,44.578-55.049,54.042-61.739
				c64.776,0.683,102.588,26.701,108.604,44.672l8.533,34.133c0.973,3.874,4.446,6.46,8.269,6.46c0.691,0,1.382-0.077,2.082-0.256
				C510.107,510.601,512.889,505.967,511.745,501.393z"/>
			<path d="M179.201,443.733c2.185,0,4.369-0.836,6.033-2.5c3.336-3.337,3.336-8.73,0-12.066
				c-7.458-7.467-16.222-12.058-24.252-14.916c0.99-0.964,1.963-1.929,2.918-2.884c5.299-5.299,10.3-10.3,15.3-10.3
				c20.608,0,35.43,21.606,35.567,21.803c2.611,3.917,7.902,4.975,11.836,2.364c3.917-2.611,4.975-7.91,2.364-11.836
				C228.166,412.203,209.025,384,179.201,384c-12.066,0-20.198,8.132-27.366,15.3c-5.299,5.299-10.3,10.3-15.3,10.3
				c-73.045,0-114.773,18.662-127.744,57.66l-8.533,34.133c-1.143,4.574,1.638,9.207,6.204,10.351
				c0.7,0.179,1.391,0.256,2.082,0.256c3.823,0,7.296-2.586,8.269-6.46l8.354-33.51c3.738-11.221,15.121-45.363,111.369-45.363
				c0.222,0,22.229,0.171,36.634,14.566C174.832,442.897,177.017,443.733,179.201,443.733z"/>
			<path d="M298.668,290.133c4.71,0,8.533-3.823,8.533-8.533v-8.533c0-4.693-3.814-8.508-8.516-8.533
				c-0.154,0-16.23-0.179-39.987-8.098c-1.758-0.58-3.635-0.58-5.393,0c-23.757,7.919-39.834,8.098-39.97,8.098
				c-4.71,0-8.533,3.823-8.533,8.533v8.533c0,4.71,3.823,8.533,8.533,8.533c4.71,0,8.533-3.823,8.533-8.533v-0.589
				c7.45-0.828,19.354-2.799,34.133-7.501c14.78,4.702,26.684,6.673,34.133,7.501v0.589
				C290.135,286.31,293.958,290.133,298.668,290.133z"/>
			<path d="M238.935,290.133c-4.71,0-8.533,3.823-8.533,8.533s3.823,8.533,8.533,8.533h34.133c4.71,0,8.533-3.823,8.533-8.533
				s-3.823-8.533-8.533-8.533H238.935z"/>
		</g>
	</g>
</g>
<g>
</g>
<g>
</g>
<g>
</g>
<g>
</g>
<g>
</g>
<g>
</g>
<g>
</g>
<g>
</g>
<g>
</g>
<g>
</g>
<g>
</g>
<g>
</g>
<g>
</g>
<g>
</g>
<g>
</g>
</svg>
