<?xml version="1.0" encoding="iso-8859-1"?>
<!-- Generator: Adobe Illustrator 19.0.0, SVG Export Plug-In . SVG Version: 6.00 Build 0)  -->
<svg version="1.1" id="Layer_1" xmlns="http://www.w3.org/2000/svg" xmlns:xlink="http://www.w3.org/1999/xlink" x="0px" y="0px"
	 viewBox="0 0 512 512" style="enable-background:new 0 0 512 512;" xml:space="preserve">
<g>
	<g>
		<g>
			<path d="M256,238.933c-30.541,0-47.667,20.727-51.14,41.609l-8.533,68.267c-0.58,4.676,2.739,8.943,7.415,9.523
				c4.642,0.563,8.934-2.731,9.523-7.407L221.747,283c2.074-12.45,12.288-27,34.253-27c21.205,0,32.589,13.824,34.193,26.658
				l8.533,68.267c0.546,4.318,4.224,7.475,8.465,7.475c0.35,0,0.708-0.017,1.067-0.068c4.668-0.58,7.987-4.847,7.407-9.523
				l-8.533-68.267C304.546,259.866,286.157,238.933,256,238.933z"/>
			<path d="M118.255,230.315c4.634,0.631,8.986-2.569,9.651-7.236l8.508-59.546c2.074-12.45,12.288-27,34.253-27
				c21.205,0,32.589,13.824,34.219,26.812l8.533,59.733c0.606,4.25,4.258,7.322,8.431,7.322c0.41,0,0.811-0.026,1.22-0.085
				c4.668-0.666,7.902-4.983,7.236-9.651l-8.508-59.588c-2.586-20.676-20.983-41.609-51.132-41.609
				c-30.541,0-47.667,20.727-51.115,41.463l-8.533,59.733C110.353,225.331,113.596,229.649,118.255,230.315z"/>
			<path d="M203.588,110.848c4.651,0.666,8.986-2.577,9.651-7.236l8.508-59.546c2.074-12.45,12.288-27,34.253-27
				c21.205,0,32.589,13.824,34.21,26.812l8.533,59.733c0.614,4.25,4.258,7.322,8.448,7.322c0.393,0,0.802-0.026,1.212-0.085
				c4.668-0.666,7.91-4.983,7.245-9.651l-8.516-59.588C304.546,20.932,286.157,0,256,0c-30.541,0-47.667,20.727-51.115,41.464
				l-8.533,59.733C195.686,105.865,198.929,110.182,203.588,110.848z"/>
			<path d="M281.677,160.93l-8.533,59.733c-0.666,4.668,2.577,8.986,7.245,9.651c4.693,0.691,8.994-2.577,9.66-7.236l8.499-59.546
				c2.074-12.45,12.288-27,34.253-27c21.205,0,32.589,13.824,34.21,26.812l8.533,59.733c0.614,4.25,4.258,7.322,8.448,7.322
				c0.393,0,0.802-0.026,1.212-0.085c4.668-0.666,7.91-4.983,7.245-9.651l-8.516-59.588c-2.586-20.676-20.975-41.609-51.132-41.609
				C302.251,119.467,285.133,140.194,281.677,160.93z"/>
			<path d="M358.46,280.542l-8.533,68.267c-0.58,4.676,2.739,8.943,7.415,9.523c4.702,0.58,8.934-2.731,9.523-7.407L375.347,283
				c2.074-12.45,12.288-27,34.253-27c21.205,0,32.589,13.824,34.193,26.658l8.533,68.267c0.546,4.318,4.224,7.475,8.465,7.475
				c0.35,0,0.708-0.017,1.067-0.068c4.668-0.58,7.987-4.847,7.407-9.523l-8.533-68.267c-2.586-20.676-20.975-41.609-51.132-41.609
				C379.051,238.933,361.933,259.661,358.46,280.542z"/>
			<path d="M493.355,395.025c-8.9-8.883-24.695-19.447-49.425-19.447c-3.797,0.06-7.492,2.603-8.474,6.434
				c-0.068,0.282-7.296,27.588-25.856,27.588c-18.569,0-25.796-27.298-25.865-27.554c-0.947-3.789-4.343-6.451-8.243-6.46h-0.239
				c-6.613,0-12.988,0.768-18.953,2.278c-4.574,1.161-7.339,5.803-6.178,10.368c1.161,4.574,5.803,7.33,10.377,6.17
				c2.833-0.708,5.803-1.212,8.892-1.493c3.866,10.078,13.252,28.331,31.676,32.768v26.59c0,4.71,3.814,8.533,8.533,8.533
				c4.71,0,8.533-3.823,8.533-8.533v-26.59c18.415-4.437,27.81-22.699,31.676-32.776c12.57,1.109,23.142,5.879,31.497,14.208
				c9.361,9.336,13.628,21.112,13.628,28.092v68.267c0,4.719,3.814,8.533,8.533,8.533c4.71,0,8.533-3.814,8.533-8.533V435.2
				C512,425.242,507.11,408.747,493.355,395.025z"/>
			<path d="M290.33,375.578c-3.917,0.06-7.484,2.603-8.474,6.434C281.788,382.293,274.56,409.6,256,409.6
				c-18.577,0-25.796-27.298-25.865-27.554c-0.947-3.789-4.344-6.451-8.243-6.46h-0.239c-24.721,0-40.516,10.564-49.417,19.439
				C158.481,408.747,153.6,425.242,153.6,435.2v68.267c0,4.719,3.814,8.533,8.533,8.533c4.71,0,8.533-3.814,8.533-8.533V435.2
				c0-6.989,4.258-18.756,13.619-28.092c8.354-8.328,18.927-13.09,31.497-14.199c3.866,10.078,13.261,28.331,31.684,32.768v26.59
				c0,4.71,3.814,8.533,8.533,8.533c4.71,0,8.533-3.823,8.533-8.533v-26.59c18.415-4.437,27.81-22.699,31.676-32.776
				c12.57,1.109,23.142,5.879,31.497,14.208c9.361,9.336,13.628,21.112,13.628,28.092v68.267c0,4.719,3.814,8.533,8.533,8.533
				c4.71,0,8.533-3.814,8.533-8.533V435.2c0-9.958-4.89-26.453-18.645-40.175C330.854,386.142,315.059,375.578,290.33,375.578z"/>
			<path d="M50.142,358.332c4.608,0.563,8.934-2.731,9.523-7.407L68.147,283c2.074-12.45,12.288-27,34.253-27
				c21.205,0,32.589,13.824,34.193,26.658l8.533,68.267c0.538,4.318,4.224,7.475,8.457,7.475c0.358,0,0.717-0.017,1.075-0.068
				c4.668-0.58,7.987-4.847,7.407-9.523l-8.533-68.267c-2.586-20.676-20.983-41.609-51.132-41.609
				c-30.541,0-47.667,20.727-51.14,41.609l-8.533,68.267C42.146,353.485,45.466,357.751,50.142,358.332z"/>
			<path d="M161.826,388.181c1.152-4.565-1.621-9.199-6.195-10.342c-6.042-1.519-12.706-2.227-19.123-2.261
				c-3.891,0.008-7.279,2.671-8.252,6.434c-0.068,0.282-7.287,27.588-25.856,27.588c-18.577,0-25.796-27.298-25.865-27.554
				c-0.947-3.789-4.343-6.451-8.243-6.46h-0.239c-24.721,0-40.516,10.564-49.417,19.439C4.881,408.747,0,425.242,0,435.2v68.267
				C0,508.186,3.814,512,8.533,512c4.71,0,8.533-3.814,8.533-8.533V435.2c0-6.989,4.258-18.756,13.619-28.092
				c8.354-8.328,18.927-13.09,31.497-14.199c3.866,10.078,13.261,28.331,31.684,32.768v26.59c0,4.71,3.814,8.533,8.533,8.533
				c4.71,0,8.533-3.823,8.533-8.533v-26.59c18.415-4.437,27.81-22.69,31.676-32.776c3.063,0.282,6.033,0.776,8.875,1.485
				C156.041,395.529,160.683,392.764,161.826,388.181z"/>
		</g>
	</g>
</g>
<g>
</g>
<g>
</g>
<g>
</g>
<g>
</g>
<g>
</g>
<g>
</g>
<g>
</g>
<g>
</g>
<g>
</g>
<g>
</g>
<g>
</g>
<g>
</g>
<g>
</g>
<g>
</g>
<g>
</g>
</svg>
