<?xml version="1.0" encoding="iso-8859-1"?>
<!-- Generator: Adobe Illustrator 19.0.0, SVG Export Plug-In . SVG Version: 6.00 Build 0)  -->
<svg version="1.1" id="Layer_1" xmlns="http://www.w3.org/2000/svg" xmlns:xlink="http://www.w3.org/1999/xlink" x="0px" y="0px"
	 viewBox="0 0 512 512" style="enable-background:new 0 0 512 512;" xml:space="preserve">
<g>
	<g>
		<g>
			<path d="M238.96,230.4c4.719,0,8.533-3.823,8.533-8.533V34.133c0-9.412,7.578-17.067,16.887-17.067
				c9.515,0,17.246,7.654,17.246,17.067v181.513c0,4.71,3.823,8.533,8.533,8.533c4.719,0,8.533-3.823,8.533-8.533V34.133
				C298.693,15.309,283.308,0,264.381,0c-18.714,0-33.954,15.309-33.954,34.133v187.733C230.427,226.577,234.25,230.4,238.96,230.4z
				"/>
			<path d="M314.966,223.241c4.642,0.794,9.062-2.287,9.882-6.921L349.97,73.839c1.655-9.267,10.556-15.462,19.78-13.841
				c9.267,1.638,15.471,10.505,13.85,19.772l-25.276,143.3c-0.828,4.642,2.27,9.071,6.912,9.89c0.503,0.085,1.007,0.128,1.493,0.128
				c4.07,0,7.671-2.91,8.397-7.049l25.267-143.309c3.268-18.534-9.148-36.267-27.691-39.543
				c-18.517-3.251-36.258,9.165-39.526,27.691L308.046,213.35C307.227,217.993,310.324,222.413,314.966,223.241z"/>
			<path d="M298.514,238.933c-58.573,0-102.4,18.995-121.788,29.235L145.187,96.836c-0.794-4.489,0.213-9.02,2.825-12.749
				c2.611-3.738,6.528-6.229,11.017-7.023c9.267-1.621,18.133,4.582,19.763,13.841l24.047,136.354
				c0.819,4.634,5.197,7.74,9.89,6.921c4.642-0.819,7.74-5.248,6.92-9.89L195.602,87.945c-3.268-18.534-21.035-30.959-39.535-27.691
				c-8.986,1.587-16.811,6.571-22.033,14.037c-5.239,7.475-7.245,16.529-5.649,25.574l33.741,183.279
				c0,0.009,0.009,0.017,0.009,0.026c0.026,0.128,0.111,0.239,0.145,0.375c0.222,0.939,0.572,1.826,1.067,2.611
				c0.034,0.06,0.034,0.12,0.068,0.179c0.162,0.23,0.393,0.35,0.572,0.563c0.461,0.572,0.947,1.101,1.536,1.527
				c0.341,0.256,0.708,0.427,1.075,0.623c0.546,0.282,1.092,0.529,1.698,0.691c0.427,0.12,0.845,0.179,1.297,0.23
				c0.307,0.034,0.597,0.162,0.922,0.162c0.512,0,1.024-0.043,1.553-0.145c0.009,0,0.009,0,0.017-0.009
				c0.521-0.094,0.998-0.401,1.493-0.597c0.563-0.222,1.169-0.35,1.656-0.674c0.008,0,0.017,0,0.017-0.009
				c0.495-0.324,49.903-32.7,123.264-32.7c60.075,0,95.471,30.746,104.9,40.166c5.854,5.862,7.953,18.321,6.221,26.317
				c-0.256,1.186-25.6,119.287-33.877,144.154c-8.789,26.325-16.009,28.297-26.044,28.297H204.648
				c-9.378,0-22.263-14.694-26.889-21.589L47.31,264.388c-6.127-10.052-5.419-10.761-2.022-14.157
				c4.855-4.855,10.743-7.228,17.314-7.031c10.778,0.307,23.219,7.211,33.271,18.475l68.267,76.8
				c3.132,3.516,8.516,3.823,12.049,0.708c3.524-3.14,3.84-8.525,0.708-12.058l-68.284-76.809
				c-13.329-14.925-29.926-23.74-45.534-24.175c-11.358-0.367-21.675,3.831-29.858,12.023c-13.602,13.594-5.7,26.547-0.435,35.191
				l130.628,209.246C165.42,485.606,183.63,512,204.648,512h145.067c24.064,0,33.997-15.292,42.223-39.97
				c8.593-25.754,33.331-141.082,34.389-145.963c2.748-12.723-0.094-31.223-10.846-41.967
				C404.891,273.502,365.151,238.933,298.514,238.933z"/>
			<path d="M484.157,137.071c-2.773-6.076-8.004-10.539-15.522-13.286c-16.674-6.05-32.58,0.768-38.477,16.085l-42.948,92.407
				c-1.988,4.275-0.128,9.344,4.139,11.332c4.292,1.988,9.353,0.137,11.341-4.139l43.17-92.928
				c2.731-7.057,9.054-9.583,16.939-6.716c4.617,1.681,5.521,3.678,5.828,4.335c1.203,2.637,0.674,7.091-1.63,13.082
				l-38.263,108.322c-1.57,4.437,0.768,9.31,5.205,10.88c0.939,0.341,1.903,0.495,2.842,0.495c3.516,0,6.81-2.193,8.047-5.692
				l38.187-108.109C487.016,152.695,487.391,144.171,484.157,137.071z"/>
			<path d="M375.314,341.333c4.719,0,8.533-3.823,8.533-8.533c0-4.71-3.814-8.533-8.533-8.533c-54.272,0-86.46-46.933-86.775-47.411
				c-2.637-3.917-7.927-4.958-11.836-2.338c-3.908,2.62-4.966,7.902-2.355,11.819C275.85,288.58,311.749,341.333,375.314,341.333z"
				/>
			<path d="M213.283,348.689c-0.649,4.659,2.603,8.96,7.253,9.626c2.355,0.341,57.847,9.079,78.319,79.275
				c1.084,3.729,4.489,6.144,8.192,6.144c0.785,0,1.596-0.111,2.389-0.341c4.531-1.323,7.117-6.059,5.803-10.581
				c-23.68-81.186-89.583-91.025-92.373-91.401C218.198,340.787,213.932,344.038,213.283,348.689z"/>
		</g>
	</g>
</g>
<g>
</g>
<g>
</g>
<g>
</g>
<g>
</g>
<g>
</g>
<g>
</g>
<g>
</g>
<g>
</g>
<g>
</g>
<g>
</g>
<g>
</g>
<g>
</g>
<g>
</g>
<g>
</g>
<g>
</g>
</svg>
