<?xml version="1.0" encoding="iso-8859-1"?>
<!-- Generator: Adobe Illustrator 17.1.0, SVG Export Plug-In . SVG Version: 6.00 Build 0)  -->
<!DOCTYPE svg PUBLIC "-//W3C//DTD SVG 1.1//EN" "http://www.w3.org/Graphics/SVG/1.1/DTD/svg11.dtd">
<svg xmlns="http://www.w3.org/2000/svg" xmlns:xlink="http://www.w3.org/1999/xlink" version="1.1" id="Capa_1" x="0px" y="0px" viewBox="0 0 199.102 199.102" style="enable-background:new 0 0 199.102 199.102;" xml:space="preserve" width="512px" height="512px">
<path d="M136.109,199.102c0-1.05-0.106-2.075-0.309-3.065c-1.418-6.931-7.551-12.144-14.901-12.144H92.947  c-0.443,0-0.886-0.015-1.326-0.045c-1.762-0.119-3.496-0.474-5.156-1.053c-1.245-0.434-2.449-0.994-3.591-1.675l-67.516-40.018  c-0.982-0.585-1.837-1.301-2.555-2.112c-1.197-1.352-2.016-2.968-2.417-4.682c-0.161-0.685-0.254-1.387-0.279-2.093  c-0.012-0.353-0.007-0.707,0.016-1.062c0.114-1.771,0.668-3.54,1.702-5.141c0.041-0.064,0.083-0.128,0.124-0.192  c0.23-0.355,0.483-0.687,0.746-1.007c0.076-0.093,0.156-0.181,0.235-0.27c0.207-0.235,0.423-0.459,0.647-0.672  c0.079-0.075,0.156-0.153,0.236-0.226c0.3-0.269,0.611-0.523,0.936-0.754c0.048-0.034,0.099-0.062,0.147-0.096  c0.284-0.195,0.577-0.375,0.876-0.541c0.103-0.057,0.207-0.111,0.312-0.165c0.278-0.142,0.561-0.272,0.85-0.389  c0.085-0.034,0.167-0.073,0.253-0.106c0.368-0.139,0.744-0.258,1.124-0.356c0.083-0.021,0.169-0.036,0.253-0.055  c0.306-0.071,0.616-0.129,0.928-0.173c0.117-0.017,0.234-0.032,0.352-0.045c0.329-0.036,0.66-0.056,0.993-0.061  c0.069-0.001,0.138-0.008,0.207-0.007c0.377,0.002,0.756,0.024,1.134,0.066c0.098,0.011,0.195,0.03,0.293,0.044  c0.283,0.039,0.566,0.088,0.848,0.151c0.126,0.028,0.252,0.06,0.378,0.093c0.266,0.069,0.53,0.151,0.793,0.241  c0.114,0.039,0.228,0.075,0.341,0.118c0.368,0.141,0.733,0.297,1.091,0.481l41.986,22.255l1.242,0.658l0,0l12.835,6.803  c4.838,2.492,10.202,3.793,15.645,3.793h24.428c2.086,0,3.759-1.768,3.602-3.888c-0.111-1.495-1.213-2.736-2.636-3.21l-29.119-9.706  c-4.218-1.406-6.97-5.554-6.51-10.091c0.502-4.955,4.905-8.605,9.885-8.605h0c6.2,0,12.385,0.599,18.47,1.789l55.211,10.799  c4.586,0.897,8.614,3.16,11.693,6.316c3.96,4.058,6.353,9.593,6.353,15.602v44.494h-1.362H136.109z M36.215,78.94h7.833v35.786  l28.29,14.995c0.001-0.835,0.043-1.677,0.129-2.525c1.276-12.595,11.941-22.094,24.809-22.094c7.15,0,14.333,0.696,21.349,2.068  l36.756,7.189V78.94h9.773c3.045,0,5.787-1.841,6.941-4.658c1.153-2.818,0.489-6.053-1.681-8.188l-65-63.94  c-2.936-2.887-7.65-2.869-10.563,0.043l-63.94,63.94c-2.145,2.145-2.787,5.371-1.626,8.173C30.447,77.112,33.181,78.94,36.215,78.94  z" fill="#5b8f47"/>
<g>
</g>
<g>
</g>
<g>
</g>
<g>
</g>
<g>
</g>
<g>
</g>
<g>
</g>
<g>
</g>
<g>
</g>
<g>
</g>
<g>
</g>
<g>
</g>
<g>
</g>
<g>
</g>
<g>
</g>
</svg>
