<?xml version="1.0" encoding="iso-8859-1"?>
<!-- Generator: Adobe Illustrator 19.0.0, SVG Export Plug-In . SVG Version: 6.00 Build 0)  -->
<svg version="1.1" id="Layer_1" xmlns="http://www.w3.org/2000/svg" xmlns:xlink="http://www.w3.org/1999/xlink" x="0px" y="0px"
	 viewBox="0 0 512 512" style="enable-background:new 0 0 512 512;" xml:space="preserve">
<g>
	<g>
		<g>
			<path d="M188.066,100.292c1.621,16.401,8.755,30.839,9.096,31.522c7.74,15.471,19.43,38.852,58.837,38.852
				s51.098-23.381,58.837-38.852c0.341-0.683,7.475-15.121,9.097-31.522c5.282-2.901,8.866-8.525,8.866-14.959V68.267
				c0-6.306-3.439-11.819-8.533-14.771V51.2c0-28.237-22.963-51.2-51.2-51.2h-34.133c-28.237,0-51.2,22.963-51.2,51.2v2.295
				c-5.094,2.953-8.533,8.465-8.533,14.771v17.067C179.2,91.767,182.784,97.391,188.066,100.292z M196.267,68.267
				c4.71,0,8.533-3.823,8.533-8.533V51.2c0-18.825,15.309-34.133,34.133-34.133h34.133c18.825,0,34.133,15.309,34.133,34.133v8.533
				c0,4.71,3.823,8.533,8.533,8.533v17.067c-4.71,0-8.533,3.823-8.533,8.533c0,14.763-7.561,30.174-7.637,30.319
				C290.68,141.952,282.846,153.6,256,153.6c-26.846,0-34.679-11.648-43.563-29.406c-0.077-0.154-7.637-15.565-7.637-30.327
				c0-4.71-3.823-8.533-8.533-8.533V68.267z"/>
			<path d="M230.4,85.333h8.533c4.71,0,8.533-3.823,8.533-8.533s-3.823-8.533-8.533-8.533H230.4c-4.71,0-8.533,3.823-8.533,8.533
				S225.69,85.333,230.4,85.333z"/>
			<path d="M59.733,409.6H51.2c-4.71,0-8.533,3.823-8.533,8.533s3.823,8.533,8.533,8.533h8.533c4.71,0,8.533-3.823,8.533-8.533
				S64.444,409.6,59.733,409.6z"/>
			<path d="M273.067,85.333h8.533c4.71,0,8.533-3.823,8.533-8.533s-3.823-8.533-8.533-8.533h-8.533c-4.71,0-8.533,3.823-8.533,8.533
				S268.356,85.333,273.067,85.333z"/>
			<path d="M460.8,409.6h-8.533c-4.71,0-8.533,3.823-8.533,8.533s3.823,8.533,8.533,8.533h8.533c4.71,0,8.533-3.823,8.533-8.533
				S465.51,409.6,460.8,409.6z"/>
			<path d="M418.133,409.6H409.6c-4.71,0-8.533,3.823-8.533,8.533s3.823,8.533,8.533,8.533h8.533c4.71,0,8.533-3.823,8.533-8.533
				S422.844,409.6,418.133,409.6z"/>
			<path d="M503.467,394.829v-2.296c0-28.237-22.963-51.2-51.2-51.2h-34.133c-28.237,0-51.2,22.963-51.2,51.2v2.296
				c-5.094,2.953-8.533,8.465-8.533,14.771v17.067c0,6.434,3.584,12.058,8.866,14.959c1.621,16.401,8.755,30.839,9.096,31.522
				C384.102,488.619,395.793,512,435.2,512s51.098-23.381,58.837-38.852c0.341-0.683,7.475-15.121,9.096-31.522
				c5.282-2.901,8.866-8.525,8.866-14.959V409.6C512,403.294,508.561,397.781,503.467,394.829z M494.933,426.667
				c-4.71,0-8.533,3.823-8.533,8.533c0,14.763-7.561,30.174-7.637,30.319c-8.883,17.766-16.717,29.414-43.563,29.414
				s-34.679-11.648-43.563-29.406C391.561,465.374,384,449.963,384,435.2c0-4.71-3.823-8.533-8.533-8.533V409.6
				c4.71,0,8.533-3.823,8.533-8.533v-8.533c0-18.825,15.309-34.133,34.133-34.133h34.133c18.825,0,34.133,15.309,34.133,34.133
				v8.533c0,4.71,3.823,8.533,8.533,8.533V426.667z"/>
			<path d="M102.4,409.6h-8.533c-4.71,0-8.533,3.823-8.533,8.533s3.823,8.533,8.533,8.533h8.533c4.71,0,8.533-3.823,8.533-8.533
				S107.11,409.6,102.4,409.6z"/>
			<path d="M348.954,342.477l-60.194-34.748c0.802-2.91,1.374-5.905,1.374-9.062c0-15.855-10.923-29.107-25.6-32.922v-69.478
				c0-4.71-3.823-8.533-8.533-8.533s-8.533,3.823-8.533,8.533v69.478c-14.677,3.814-25.6,17.067-25.6,32.922
				c0,3.157,0.572,6.153,1.374,9.054l-60.194,34.756c-4.079,2.355-5.478,7.578-3.123,11.657c1.587,2.739,4.454,4.267,7.398,4.267
				c1.451,0,2.918-0.367,4.258-1.143l60.1-34.697c6.195,6.306,14.805,10.24,24.32,10.24s18.116-3.934,24.311-10.24l60.109,34.697
				c1.34,0.776,2.807,1.143,4.258,1.143c2.944,0,5.811-1.527,7.398-4.267C354.432,350.046,353.033,344.832,348.954,342.477z
				 M256,315.733c-9.412,0-17.067-7.654-17.067-17.067S246.588,281.6,256,281.6c9.412,0,17.067,7.654,17.067,17.067
				S265.412,315.733,256,315.733z"/>
			<path d="M145.067,394.829v-2.296c0-28.237-22.963-51.2-51.2-51.2H59.733c-28.237,0-51.2,22.963-51.2,51.2v2.296
				C3.439,397.781,0,403.294,0,409.6v17.067c0,6.434,3.584,12.058,8.866,14.959c1.621,16.401,8.755,30.839,9.096,31.522
				C25.702,488.619,37.393,512,76.8,512s51.098-23.381,58.837-38.852c0.341-0.683,7.475-15.121,9.097-31.522
				c5.282-2.901,8.866-8.525,8.866-14.959V409.6C153.6,403.294,150.161,397.781,145.067,394.829z M136.533,426.667
				c-4.71,0-8.533,3.823-8.533,8.533c0,14.763-7.561,30.174-7.637,30.319c-8.883,17.766-16.717,29.414-43.563,29.414
				c-26.846,0-34.679-11.648-43.563-29.406c-0.077-0.154-7.637-15.565-7.637-30.328c0-4.71-3.823-8.533-8.533-8.533V409.6
				c4.71,0,8.533-3.823,8.533-8.533v-8.533c0-18.825,15.309-34.133,34.133-34.133h34.133c18.825,0,34.133,15.309,34.133,34.133
				v8.533c0,4.71,3.823,8.533,8.533,8.533V426.667z"/>
		</g>
	</g>
</g>
<g>
</g>
<g>
</g>
<g>
</g>
<g>
</g>
<g>
</g>
<g>
</g>
<g>
</g>
<g>
</g>
<g>
</g>
<g>
</g>
<g>
</g>
<g>
</g>
<g>
</g>
<g>
</g>
<g>
</g>
</svg>
