<?xml version="1.0" encoding="iso-8859-1"?>
<!-- Generator: Adobe Illustrator 19.0.0, SVG Export Plug-In . SVG Version: 6.00 Build 0)  -->
<svg version="1.1" id="Layer_1" xmlns="http://www.w3.org/2000/svg" xmlns:xlink="http://www.w3.org/1999/xlink" x="0px" y="0px"
	 viewBox="0 0 511.999 511.999" style="enable-background:new 0 0 511.999 511.999;" xml:space="preserve">
<g>
	<g>
		<g>
			<path d="M509.542,267.073c-0.538-0.546-13.303-13.218-34.466-13.218c-6.622,0-13.38,1.246-20.113,3.695
				c-4.386,1.596-8.166,3.49-11.46,5.564c0.068-2.372,0.23-4.693,0.23-7.117c0-11.093-0.521-21.606-1.451-31.599
				c0.922,0.068,1.766,0.179,2.756,0.179c8.371,0,20.924-2.577,33.195-14.839c23.825-23.834,11.998-48.333,11.486-49.365
				c-0.828-1.656-2.167-2.995-3.823-3.823c-0.691-0.341-7.006-3.371-16.162-3.371c-8.371,0-20.924,2.577-33.195,14.848
				c-1.476,1.476-2.799,2.961-4.011,4.437c-3.721-12.732-8.166-24.235-13.09-34.552c8.354-3.115,18.927-10.206,24.926-26.701
				c10.752-29.534-8.977-45.619-9.822-46.293c-1.51-1.195-3.49-1.843-5.419-1.843c-2.688,0-26.607,0.819-36.907,29.133
				c-0.282,0.785-0.384,1.562-0.632,2.347c-3.396-4.002-6.775-7.68-10.086-10.991c-3.567-3.567-7.134-6.81-10.65-9.813
				c5.419-5.914,10.709-15.599,9.395-30.609c-2.492-28.433-25.011-34.125-25.967-34.355c-1.818-0.427-3.686-0.265-5.376,0.469
				c-0.905,0.393-21.905,9.847-19.618,38.007c-6.545-2.884-10.752-4.139-11.213-4.267c-4.48-1.28-9.25,1.323-10.547,5.862
				c-1.289,4.531,1.331,9.25,5.871,10.547c0.23,0.068,5.308,1.621,13.116,5.436c-2.415,1.143-4.821,2.509-7.177,4.156
				c-23.373,16.367-17.05,38.716-16.777,39.654c0.538,1.775,1.621,3.328,3.098,4.429c0.811,0.589,8.158,5.803,19.337,5.803
				c8.107,0,16.077-2.697,23.654-8.004c8.943-6.263,13.457-13.372,15.701-19.849c5.692,5.274,11.46,11.332,17.075,18.295
				c-3.337-0.085-6.835,0.094-10.453,0.725c-30.933,5.461-35.012,30.566-35.166,31.633c-0.273,1.835,0.051,3.703,0.939,5.325
				c0.41,0.751,10.325,18.543,34.551,18.543c3.004,0,6.135-0.282,9.318-0.836c12.689-2.236,20.779-7.791,26.01-13.628
				c3.883,8.781,7.364,18.338,10.283,28.783c-3.038-1.485-6.451-2.773-10.308-3.806c-4.881-1.314-9.694-1.971-14.31-1.971
				c-22.886,0-33.724,16.017-34.176,16.7c-1.024,1.544-1.519,3.379-1.399,5.222c0.068,1.152,2.074,28.279,34.62,37
				c4.89,1.306,9.694,1.971,14.302,1.971c8.201,0,14.805-2.082,19.985-4.753c0.648,8.226,1.05,16.768,1.05,25.762
				c0,0.111-0.009,0.205-0.009,0.307c-1.502-1.553-3.115-3.089-4.932-4.608c-10.086-8.465-21.018-12.766-32.478-12.766
				c-11.733,0-19.635,4.651-20.497,5.18c-1.579,0.973-2.79,2.424-3.473,4.139c-0.444,1.135-10.607,27.947,16.674,50.85
				c10.078,8.465,21.009,12.757,32.461,12.757c1.357,0,2.645-0.077,3.891-0.188c-3.772,12.109-8.653,23.322-14.387,33.664
				c-0.913-3.43-2.125-6.997-3.874-10.743c-13.44-28.834-37.402-31.078-44.416-31.078c-1.843,0-2.893,0.137-2.893,0.137
				c-1.792,0.23-3.584,1.041-4.89,2.287c-0.939,0.879-22.622,21.982-6.699,56.107c7.842,16.853,19.234,24.516,28.8,28.066
				c-8.866,8.875-18.099,16.7-27.238,23.526c0.683-3.763,1.135-7.774,1.135-12.237c0-39.825-30.148-50.338-31.437-50.765
				c-1.749-0.589-3.644-0.589-5.393,0c-1.289,0.427-31.437,10.94-31.437,50.765c0,21.666,8.926,34.645,17.271,42.052
				c-13.193,6.187-21.99,9.105-22.357,9.216c-4.489,1.425-6.972,6.221-5.555,10.709c1.152,3.635,4.506,5.965,8.132,5.965
				c0.853,0,1.715-0.128,2.569-0.401c0.41-0.128,10.726-3.516,26.018-10.82c2.057,11.034,8.678,25.711,27.938,36.83
				c9.796,5.658,19.746,8.516,29.602,8.516h0.009c17.869,0,28.877-9.293,30.063-10.351c1.382-1.229,2.338-2.867,2.705-4.676
				c0.273-1.323,6.255-32.691-28.245-52.608c-4.71-2.722-9.446-4.719-14.199-6.135c11.913-8.627,24.09-18.825,35.584-30.754
				c5.999,8.875,17.544,19.516,39.305,21.419c2.065,0.179,4.036,0.265,5.939,0.265h0.009c32.947,0,44.049-24.713,44.501-25.762
				c0.734-1.69,0.896-3.584,0.469-5.376c-0.299-1.246-7.723-30.575-45.252-33.869c-4.463-0.393-8.533-0.29-12.297,0.102
				c7.228-12.655,13.261-26.59,17.724-41.762c5.359,2.884,12.476,5.342,21.376,5.342c6.229,0,12.698-1.212,19.243-3.584
				c32.819-11.947,35.729-40.678,35.84-41.89C512.187,271.322,511.3,268.856,509.542,267.073z M338.867,96.892
				c-4.668,3.268-9.336,4.924-13.875,4.924c-2.637,0-4.821-0.546-6.4-1.126c-0.026-4.122,1.451-11.358,10.522-17.707
				c6.588-4.617,13.235-6.007,19.396-4.087c0.299,0.085,0.597,0.162,0.905,0.222C349.448,83.137,348.048,90.467,338.867,96.892z
				 M357.35,63.271c-2.219-1.57-4.386-3.012-6.502-4.361c-2.492-3.345-4.087-7.552-4.548-12.8
				c-0.973-11.136,3.703-16.922,6.835-19.499c3.499,1.98,9.131,6.861,10.103,18.022C364.125,54.686,360.388,60.361,357.35,63.271z
				 M377.642,147.905c-2.202,0.384-4.335,0.58-6.349,0.58c-9.463,0-15.053-4.369-17.69-7.219
				c1.801-4.386,6.835-12.023,20.326-14.404c9.31-1.638,17.016,0.196,22.699,5.333c0.239,0.213,0.495,0.375,0.742,0.555
				c0.179,0.299,0.341,0.606,0.521,0.913C396.04,138.074,390.997,145.549,377.642,147.905z M411.383,122.689
				c-1.434-2.458-2.884-4.855-4.361-7.159c-1.229-4.403-1.434-10.18,1.229-17.476c4.719-12.954,13.175-16.546,17.741-17.536
				c2.825,3.669,7.049,11.904,2.338,24.858C423.867,117.637,416.085,121.477,411.383,122.689z M405.631,217.921
				c-3.115,0-6.443-0.469-9.882-1.391c-15.283-4.096-19.977-13.585-21.402-18.534c2.85-2.714,8.713-6.835,17.937-6.835
				c3.123,0,6.451,0.469,9.899,1.391c12.74,3.413,18.159,10.675,20.446,16.162c0.171,0.393,0.427,0.708,0.64,1.058
				c0.06,0.452,0.145,0.888,0.213,1.348C420.633,213.833,414.856,217.921,405.631,217.921z M313.429,432.15
				c-0.393,0.307-0.572,0.759-0.896,1.118c-0.896,0.503-1.783,0.998-2.662,1.485c-5.299-2.867-17.229-11.674-17.229-33.357
				c0-21.291,11.656-30.276,17.075-33.297c5.419,3.012,17.058,11.964,17.058,33.297C326.775,418.283,319.513,427.44,313.429,432.15z
				 M355.191,450.607c18.415,10.633,20.386,25.199,20.292,31.42c-3.021,1.792-8.687,4.369-16.282,4.369
				c-6.827,0-13.909-2.091-21.077-6.229c-17.485-10.095-20.13-23.723-20.292-30.396c2.278-1.254,4.599-2.577,6.972-3.959
				C334.207,442.97,344.669,444.523,355.191,450.607z M385.424,372.698c-0.034,0.06-0.026,0.128-0.051,0.188
				c-0.819,1.007-1.638,2.005-2.466,2.995c-6.707-0.666-18.509-4.335-26.3-21.052c-8.141-17.459-2.287-29.372,1.067-34.167
				c6.596,0.538,18.901,3.977,26.897,21.137C391.15,355.905,388.667,366.392,385.424,372.698z M428.603,372.613
				c19.226,1.69,26.615,12.766,29.073,18.057c-3.063,4.403-11.042,12.885-27.315,12.885h-0.009c-1.417,0-2.91-0.06-4.454-0.196
				c-18.953-1.655-26.334-12.356-28.894-17.732c1.254-1.51,2.466-3.063,3.686-4.625
				C405.657,376.308,414.412,371.393,428.603,372.613z M423.031,293.313c-2.057,0.717-4.941,1.476-8.619,1.476
				c-7.33,0-14.566-2.953-21.495-8.755c-13.321-11.187-13.346-23.134-12.476-28.552c2.057-0.717,5.12-1.485,8.806-1.485
				c7.339,0,14.575,2.953,21.513,8.772c11.017,9.242,12.996,18.901,12.732,25.378c0,0.094,0.034,0.179,0.034,0.273
				C423.347,291.375,423.227,292.365,423.031,293.313z M448.605,180.101c6.537-6.537,13.645-9.856,21.129-9.856
				c2.278,0,4.224,0.316,5.692,0.666c1.246,5.077,1.886,15.607-9.259,26.761c-6.536,6.528-13.645,9.839-21.129,9.839
				c-1.937,0-3.55-0.247-4.915-0.538c-0.384-2.534-0.828-4.992-1.28-7.45C439.227,194.027,441.54,187.158,448.605,180.101z
				 M470.288,299.67c-4.676,1.698-9.182,2.56-13.406,2.56c-8.371,0-14.003-3.311-17.058-5.717c0.299-1.527,0.521-3.115,0.794-4.668
				c2.261-6.042,7.578-13.679,20.181-18.253c4.847-1.775,9.66-2.671,14.276-2.671c8.747,0,15.249,3.157,18.918,5.538
				C492.04,282.595,486.365,293.825,470.288,299.67z"/>
			<path d="M241.51,452.664c-0.367-0.111-9.165-3.029-22.357-9.216c8.346-7.407,17.271-20.386,17.271-42.052
				c0-39.825-30.148-50.338-31.437-50.765c-1.749-0.589-3.644-0.589-5.393,0c-1.289,0.427-31.437,10.94-31.437,50.765
				c0,4.463,0.452,8.474,1.135,12.237c-9.139-6.827-18.372-14.652-27.238-23.526c9.566-3.55,20.958-11.213,28.8-28.058
				c15.923-34.133-5.76-55.236-6.699-56.115c-1.306-1.246-3.098-2.057-4.89-2.287c0,0-1.05-0.137-2.893-0.137
				c-7.014,0-30.976,2.244-44.416,31.078c-1.749,3.746-2.961,7.313-3.874,10.743c-5.734-10.342-10.615-21.555-14.387-33.664
				c1.246,0.111,2.534,0.188,3.891,0.188c11.452,0,22.383-4.292,32.461-12.757c27.29-22.904,17.118-49.715,16.674-50.85
				c-0.683-1.715-1.894-3.166-3.473-4.139c-0.862-0.529-8.764-5.18-20.497-5.18c-11.46,0-22.391,4.301-32.478,12.766
				c-1.818,1.519-3.43,3.055-4.932,4.608c0-0.102-0.009-0.196-0.009-0.307c0-9.003,0.384-17.545,1.024-25.779
				c5.188,2.679,11.793,4.779,20.011,4.77c4.608,0,9.412-0.666,14.302-1.971c32.546-8.721,34.551-35.849,34.62-37
				c0.119-1.843-0.375-3.678-1.399-5.222c-0.452-0.683-11.29-16.7-34.176-16.7c-4.617,0-9.429,0.657-14.31,1.971
				c-3.951,1.058-7.441,2.406-10.547,3.925c2.91-10.598,6.383-20.292,10.257-29.175c5.231,5.939,13.397,11.631,26.274,13.901
				c3.183,0.555,6.315,0.836,9.318,0.836c24.226,0,34.142-17.792,34.552-18.543c0.887-1.621,1.212-3.49,0.939-5.325
				c-0.154-1.067-4.233-26.172-35.166-31.633c-3.891-0.683-7.612-0.802-11.17-0.666c5.786-7.228,11.733-13.44,17.613-18.842
				c2.193,6.605,6.707,13.918,15.881,20.335c7.578,5.308,15.548,8.004,23.663,8.004c11.17,0,18.517-5.214,19.328-5.803
				c1.485-1.101,2.56-2.654,3.098-4.429c0.273-0.939,6.596-23.287-16.777-39.654c-2.432-1.698-4.907-3.081-7.398-4.241
				c7.407-3.524,12.433-5.086,13.338-5.35c4.54-1.297,7.159-6.016,5.871-10.547c-1.297-4.54-6.059-7.134-10.547-5.862
				c-0.461,0.128-4.668,1.382-11.213,4.267c2.287-28.16-18.705-37.632-19.61-38.025c-1.698-0.734-3.584-0.896-5.393-0.469
				c-0.956,0.23-23.467,5.948-25.958,34.372c-1.314,15.01,3.977,24.695,9.395,30.609c-3.516,3.004-7.083,6.246-10.65,9.813
				c-3.311,3.311-6.69,6.989-10.086,10.991c-0.247-0.785-0.35-1.553-0.631-2.338c-10.274-28.254-34.091-29.133-37.231-29.133h-0.026
				c-1.852,0.043-3.627,0.691-5.069,1.835c-0.845,0.674-20.574,16.759-9.822,46.293c5.99,16.452,16.521,23.552,24.934,26.675
				c-4.924,10.325-9.37,21.837-13.099,34.577c-1.212-1.476-2.534-2.953-4.011-4.429c-12.271-12.279-24.823-14.857-33.195-14.857
				c-9.156,0-15.471,3.029-16.162,3.371c-1.655,0.828-2.995,2.167-3.823,3.823c-0.512,1.033-12.339,25.532,11.486,49.365
				c12.271,12.262,24.823,14.839,33.195,14.839c0.99,0,1.843-0.111,2.756-0.179c-0.93,9.993-1.451,20.506-1.451,31.599
				c0,2.423,0.162,4.745,0.23,7.117c-3.294-2.074-7.074-3.968-11.46-5.564c-6.724-2.449-13.491-3.695-20.113-3.695
				c-21.163,0-33.929,12.672-34.466,13.218c-1.758,1.783-2.645,4.25-2.423,6.75c0.111,1.212,3.021,29.943,35.84,41.882
				c6.545,2.381,13.022,3.593,19.243,3.593c8.9,0,16.017-2.449,21.376-5.342c4.463,15.181,10.496,29.107,17.724,41.762
				c-3.763-0.393-7.825-0.486-12.297-0.102c-37.53,3.294-44.954,32.623-45.252,33.869c-0.427,1.792-0.265,3.686,0.469,5.376
				c0.452,1.05,11.546,25.762,44.51,25.762c1.903,0,3.874-0.085,5.939-0.265c21.76-1.903,33.306-12.544,39.305-21.419
				c11.494,11.93,23.671,22.127,35.584,30.754c-4.753,1.417-9.489,3.413-14.199,6.135c-34.5,19.917-28.518,51.285-28.245,52.608
				c0.367,1.809,1.323,3.448,2.705,4.676c1.186,1.058,12.194,10.351,30.063,10.351c9.865,0,19.823-2.859,29.611-8.516
				c19.26-11.119,25.882-25.796,27.938-36.83c15.292,7.305,25.609,10.692,26.018,10.82c0.853,0.273,1.715,0.401,2.569,0.401
				c3.627,0,6.98-2.33,8.132-5.965C248.482,458.885,245.998,454.089,241.51,452.664z M182.886,82.983
				c9.097,6.374,10.556,13.636,10.539,17.698c-1.596,0.589-3.78,1.135-6.417,1.135c-4.54,0-9.207-1.655-13.875-4.915
				c-9.165-6.426-10.581-13.739-10.539-17.784c0.299-0.06,0.597-0.137,0.896-0.222C169.651,76.993,176.298,78.375,182.886,82.983z
				 M148.761,44.634c0.973-11.136,6.588-16.034,10.121-18.039c3.098,2.569,7.791,8.363,6.818,19.516
				c-0.461,5.248-2.057,9.455-4.548,12.8c-2.116,1.348-4.284,2.79-6.511,4.361C151.62,60.37,147.874,54.703,148.761,44.634z
				 M115.379,132.195c5.675-5.137,13.406-6.972,22.69-5.333c13.525,2.381,18.551,10.052,20.335,14.387
				c-2.662,2.884-8.252,7.236-17.698,7.236c-2.014,0-4.147-0.196-6.349-0.58c-13.79-2.432-18.748-10.351-20.446-14.643
				C114.423,132.963,114.918,132.613,115.379,132.195z M83.669,105.374c-4.71-12.954-0.546-21.154,2.321-24.849
				c4.625,0.998,13.056,4.608,17.758,17.536c2.662,7.287,2.458,13.065,1.229,17.468c-1.476,2.295-2.927,4.693-4.361,7.159
				C95.88,121.46,88.123,117.611,83.669,105.374z M88.635,209.933c0.256-0.401,0.538-0.768,0.734-1.22
				c2.287-5.487,7.706-12.749,20.446-16.162c3.447-0.922,6.775-1.391,9.899-1.391c9.242,0,15.104,4.139,17.937,6.818
				c-1.442,5.009-6.153,14.464-21.402,18.551c-3.439,0.922-6.767,1.391-9.882,1.391c-9.301,0.009-15.112-4.164-17.92-6.835
				C88.507,210.693,88.575,210.317,88.635,209.933z M55.116,302.23c-4.224,0-8.73-0.862-13.406-2.56
				c-16.094-5.854-21.769-17.109-23.714-23.202c3.686-2.398,10.189-5.547,18.927-5.547c4.617,0,9.429,0.896,14.276,2.671
				c12.604,4.574,17.92,12.211,20.181,18.253c0.273,1.553,0.486,3.132,0.794,4.659C69.094,298.927,63.47,302.23,55.116,302.23z
				 M71.876,206.972c-1.374,0.29-2.978,0.538-4.915,0.538c-7.484,0-14.592-3.311-21.129-9.839
				c-11.17-11.187-10.505-21.743-9.267-26.752c1.468-0.358,3.43-0.674,5.7-0.674c7.484,0,14.592,3.319,21.129,9.856
				c7.066,7.057,9.378,13.926,9.762,19.422C72.72,201.98,72.26,204.438,71.876,206.972z M88.473,290.42
				c0-0.094,0.034-0.179,0.034-0.273c-0.265-6.477,1.715-16.137,12.732-25.378c6.938-5.82,14.174-8.772,21.513-8.772
				c3.686,0,6.75,0.768,8.789,1.476c0.888,5.478,0.836,17.391-12.459,28.553c-6.929,5.811-14.165,8.764-21.495,8.764
				c-3.618,0-6.571-0.734-8.61-1.434C88.78,292.399,88.652,291.384,88.473,290.42z M86.101,403.358
				c-19.115,1.63-28.433-7.936-31.778-12.732c2.441-5.282,9.788-16.316,29.073-18.014c14.157-1.212,22.946,3.695,27.913,8.397
				c1.229,1.553,2.441,3.123,3.695,4.634C112.469,391.019,105.122,401.694,86.101,403.358z M129.092,375.881
				c-0.828-0.99-1.647-1.988-2.466-2.995c-0.026-0.06-0.017-0.128-0.051-0.188c-3.243-6.306-5.726-16.794,0.853-30.899
				c8.004-17.178,20.318-20.608,26.914-21.137c3.362,4.762,9.225,16.631,1.05,34.167C147.6,371.546,135.799,375.215,129.092,375.881
				z M173.875,480.167c-7.168,4.139-14.251,6.229-21.077,6.229c-7.603,0-13.252-2.569-16.282-4.369
				c-0.085-6.272,1.911-20.813,20.292-31.42c10.522-6.093,20.975-7.637,30.396-4.796c2.372,1.391,4.693,2.714,6.98,3.968
				C194.039,456.436,191.402,470.046,173.875,480.167z M202.12,434.744c-0.879-0.486-1.758-0.973-2.645-1.476
				c-0.333-0.358-0.503-0.811-0.896-1.118c-6.093-4.71-13.355-13.867-13.355-30.754c0-21.291,11.657-30.276,17.075-33.297
				c5.419,3.012,17.058,11.964,17.058,33.297C219.357,423.011,207.428,431.86,202.12,434.744z"/>
		</g>
	</g>
</g>
<g>
</g>
<g>
</g>
<g>
</g>
<g>
</g>
<g>
</g>
<g>
</g>
<g>
</g>
<g>
</g>
<g>
</g>
<g>
</g>
<g>
</g>
<g>
</g>
<g>
</g>
<g>
</g>
<g>
</g>
</svg>
