<svg version="1.1"  xmlns="http://www.w3.org/2000/svg" x="0px" y="0px"
	 viewBox="0 0 508 508" style="enable-background:new 0 0 508 508;" >
			<path d="M361.1,236.6c-2.6-77.3-30.9-153.2-82.8-210.1L254,0l-24.2,26.6c-52,56.9-80.2,132.8-82.8,210.1
				c-31.8,29.6-50,71.1-50,114.3c0,37,13.2,72.9,37.1,101.2l20.3,24l-5.8-30.9c-1.3-6.8-1.9-13.5-1.9-20c0-22.5,7.1-44,20.1-62.2
				c4,11.1,8.4,22.1,13.7,32.8l2.3,4.6h142.7l2.3-4.6c5.3-10.7,9.7-21.7,13.7-32.8c13,18.1,20.1,39.7,20.1,62.2
				c0,6.5-0.7,13.2-1.9,20l-5.8,30.8l20.2-23.9C397.8,423.9,411,388,411,351C411,307.8,392.8,266.3,361.1,236.6z M242,37.7l12-13.2
				l12,13.2c15.9,17.4,29.4,36.6,40.5,57.2H201.4C212.6,74.3,226.1,55.1,242,37.7z M130.3,417.5c-10.9-20.3-16.8-43.2-16.8-66.4
				c0-33.1,11.9-65.1,33.1-90.3c0.2,4.7,0.6,9.4,1,14.1c0.1,0.8,0.1,1.6,0.2,2.3c1.9,22.9,6,45.5,12.5,67.3
				C142.5,365.1,132.1,390.6,130.3,417.5z M344.2,271.4c0,0.3,0,0.5-0.1,0.8c-1.6,22.4-5.6,44.7-11.9,66.4c-0.3,1-0.6,2-0.9,3
				c-4.3,14.4-9.7,28.6-16.3,42.5H193c-6.5-13.8-11.9-28.1-16.3-42.6c-0.3-1-0.6-2-0.9-3c-6.3-21.7-10.3-43.9-11.9-66.2
				c0-0.3-0.1-0.7-0.1-1c-0.5-7.5-0.8-15.1-0.8-22.6c0-0.1,0-0.2,0-0.3c0-47.4,10.3-94.4,30.1-136.9h121.8
				C338,160.8,348.1,216.4,344.2,271.4z M347.7,344.5c6.5-21.8,10.6-44.3,12.5-67.3c0.1-0.8,0.1-1.6,0.2-2.3c0.4-4.7,0.8-9.4,1-14.1
				c21.2,25.2,33.1,57.2,33.1,90.3c0,23.3-5.8,46.1-16.8,66.5C376,390.6,365.5,365,347.7,344.5z"/>
			<rect x="245.7" y="417.1" width="16.5" height="49.6"/>
			<rect x="295.3" y="458.4" width="16.5" height="49.6"/>
			<rect x="196.2" y="458.4" width="16.5" height="49.6"/>
			<rect x="246.1" y="318" width="16.2" height="16.5"/>
			<rect x="279" y="318" width="16.2" height="16.5"/>
			<rect x="212.9" y="318" width="16.2" height="16.5"/>
			<path d="M254,161c-31.9,0-57.8,25.9-57.8,57.8s25.9,57.8,57.8,57.8s57.8-25.9,57.8-57.8S285.9,161,254,161z M254,260.1
				c-22.8,0-41.3-18.5-41.3-41.3s18.5-41.3,41.3-41.3s41.3,18.5,41.3,41.3S276.8,260.1,254,260.1z"/>

</svg>
